<?xml version="1.0" encoding="UTF-8"?>

<svg xmlns="http://www.w3.org/2000/svg" width="22" height="22" viewBox="0 0 22 22" version="1.1">
	<path fill="black" d="m 8.4877769,20.276135 c -0.8597663,-0.9247 -1.4925461,-2.999622 -2.3176732,-3.927522 -0.8251344,-0.9278 -3.0865543,-1.700878 -4.1138898,-2.401578 -1.98610993,-1.3547 -2.92182535,-3.5947 -1.016997,-5.3204997 1.9048282,-1.7257 2.789894,-0.3094 5.3020344,-0.3016 2.5121406,0.01 4.5506517,-1.358 6.0362797,0.3371 1.485627,1.6949997 0.89868,3.1661997 1.092762,5.8577997 0.194082,2.6916 1.830992,4.2611 -0.214426,6.3229 -1.804033,1.8185 -2.947295,1.3916 -4.7680901,-0.5666 z m 7.7730131,-4.4643 c -0.973347,-0.9733 -0.419556,-3.0294 1.103214,-4.096 3.711506,-2.5996997 6.493408,-5e-4 3.112277,2.9078 -1.941807,1.6703 -3.339488,2.0642 -4.215491,1.1882 z M 15.18038,9.9805353 c -2.048772,-1.2982 0.838025,-5.8675 4.061925,-6.2278 2.710733,-0.3029 2.807054,2.6924 0.07372,4.9924 -2.431291,2.0456997 -2.720425,2.1320997 -4.135663,1.2354 z m -5.027331,-3.9323 c -1.4803801,-1.7837 2.182093,-6.43169999 4.687767,-5.94919999 2.080956,0.4008 2.276811,2.73889999 -0.0057,5.02149999 -2.388378,2.3884 -3.465576,2.3933 -4.681945,0.9277 z m -6.4193305,-1.1412 c 0,-1.7266 3.3446208,-5.03179999 4.5785111,-4.62099999 2.6002084,0.86579999 0.1545583,6.07149999 -2.8221569,6.07149999 -1.2966439,0 -1.7563542,-0.3797 -1.7563542,-1.4505 z" />
</svg>
