<?xml version="1.0" encoding="UTF-8"?>
<svg xmlns="http://www.w3.org/2000/svg" viewBox="0 0 34 22" height="22" width="34" version="1.1">
	<path fill="white" d="M 29.687351,10.881912 29.666913,7.7220798 26.421142,7.7072891 26.401511,4.1725146 23.490137,4.1269057 23.402926,0.0166086 33.939119,0.22039672 C 33.682542,3.8348927 32.808611,10.90872 32.808611,10.90872 Z" />
	<path fill="white" d="m 13.140702,21.9354 c -1.75567,-0.392805 -2.536877,-2.143395 -1.675088,-3.753663 0.488344,-0.91248 2.179619,-1.549338 4.313781,-1.62438 l 1.79059,-0.06295 0.109962,2.309335 c 0.101006,2.121258 0.04088,2.334727 -0.738214,2.62113 -1.273466,0.468143 -2.971262,0.696185 -3.801031,0.510533 z M 0.17304991,20.929316 C 0.05738712,20.627902 0.02605785,17.596612 0.10345323,14.193116 0.22336498,8.9195353 0.35664208,7.7594517 1.0051686,6.3439579 2.0973739,3.9601184 3.5511915,2.3904551 5.7143655,1.259501 7.5320732,0.30916475 7.8678718,0.26633375 14.524851,0.13575123 L 21.445603,5.972489e-8 l 0,2.98742944027511 0,2.9874294 1.640758,0 1.640758,0 0.04496,3.3676645 3.309102,0.1204764 0.05596,3.2073822 2.2831,-0.118083 c 2.248265,-0.116281 2.281206,-0.103992 2.159059,0.804694 -0.201932,1.50217 -1.348546,3.819917 -2.588297,5.231914 -1.429908,1.628576 -4.414059,2.970781 -6.263048,2.816977 l -1.359607,-0.113081 -0.18456,-5.924105 C 21.97936,8.8067795 21.724751,7.9963627 19.507236,6.8496418 18.850989,6.5102827 17.232621,6.1552482 15.910865,6.0606769 13.448124,5.88448 8.6253999,6.4514402 8.1372524,6.9745609 7.9873022,7.1352679 7.7523542,7.9578963 7.615159,8.8026435 L 7.3657081,10.338544 8.7767593,10.011047 c 1.9849087,-0.4606883 6.1878167,-0.4232249 7.2586947,0.0647 0.934859,0.425952 1.719048,1.732514 1.719048,2.864167 0,0.540189 -0.513592,0.723303 -2.919683,1.040968 -5.1408088,0.678721 -7.690153,2.53372 -8.0661122,5.869208 l -0.1834039,1.627266 -3.1009893,0 c -2.4017658,0 -3.14840799,-0.123569 -3.31126369,-0.548042 z" />
</svg>
