<?xml version="1.0" encoding="UTF-8"?>
<svg xmlns="http://www.w3.org/2000/svg" version="1.1" viewBox="0 0 22 22" height="22" width="22">
	<path d="M 11 0 C 4.9426347 0 0 4.9427 0 11 C 0 17.0574 4.9426347 22 11 22 C 17.057365 22 22 17.0574 22 11 C 22 4.9427 17.057365 0 11 0 z M 11 3 C 12.526635 3 13.943949 3.4295822 15.154297 4.1640625 L 4.3203125 15.414062 C 3.4863744 14.15057 3 12.635474 3 11 C 3 6.564 6.5639551 3 11 3 z M 17.679688 6.5859375 C 18.513062 7.8491542 19 9.3651642 19 11 C 19 15.4361 15.436045 19 11 19 C 9.474328 19 8.0575088 18.569549 6.8476562 17.835938 L 17.679688 6.5859375 z " fill="white" />
</svg>
