<?xml version="1.0" encoding="UTF-8"?>
<svg xmlns="http://www.w3.org/2000/svg" viewBox="0 0 22 22" height="22" width="22" version="1.1">
	<path d="M 16.349389,18.604743 C 14.643004,17.566743 12.93662,16.528744 11.230235,15.490744 9.5276348,16.53494 7.8250344,17.579135 6.1224339,18.62333 6.5823283,16.679702 7.0422228,14.736075 7.5021172,12.792447 5.9828959,11.495852 4.4636745,10.199257 2.9444532,8.9026621 4.9350682,8.7394337 6.9256833,8.5762053 8.9162983,8.4129769 9.6799683,6.5674416 10.443638,4.7219064 11.207308,2.8763711 c 0.770374,1.8427471 1.540747,3.6854942 2.31112,5.5282413 1.991196,0.1559914 3.982391,0.3119829 5.973586,0.4679743 -1.514498,1.3021083 -3.028996,2.6042173 -4.543495,3.9063263 0.466957,1.941943 0.933914,3.883887 1.40087,5.82583 z" fill="white" />
</svg>
