<?xml version="1.0" encoding="UTF-8" standalone="no"?>
<svg xmlns="http://www.w3.org/2000/svg" viewBox="0 0 22 22" height="22" width="22" version="1.1">
	<path d="m 19.65625,3.0527 c -3.811475,1.7277 -6.61717,5.1392 -9.493407,8.0934 -1.0353652,1.4778 -2.9448777,2.8861 -3.0476086,4.7641 2.2187137,-0.25 3.8446776,-2.4966 5.5786486,-3.7836 2.637859,-2.6806 5.748789,-5.2537 7.278225,-8.7559 0.05305,-0.1965 -0.129596,-0.3581 -0.315858,-0.318 z m -13.0390625,12.9473 c -1.6017243,0.01 -3.4228749,0.6249 -4.0912972,2.2137 -0.3932689,0.8659 -0.5312258,1.8332 -0.4907341,2.7785 1.7221747,0.089 3.7542511,-0.4873 4.489958,-2.206 0.393567,-0.8658 0.5322073,-1.833 0.4924639,-2.7784 -0.1332625,-0.01 -0.2669076,-0.01 -0.4003906,-0.01 z" fill="white" />
</svg>
